<svg height="495" viewBox="0 0 438 495" width="438" xmlns="http://www.w3.org/2000/svg"><g fill="#064b8d"><path d="m160.753 286.171a218.574 218.574 0 0 1 -32.4-2.4 204.362 204.362 0 0 1 -30.175-6.884 185.179 185.179 0 0 1 -27.306-10.892 161.611 161.611 0 0 1 -23.791-14.426 136.358 136.358 0 0 1 -19.629-17.484 113.306 113.306 0 0 1 -14.821-20.067 96.387 96.387 0 0 1 -9.367-22.175 88.849 88.849 0 0 1 -.032-47.619 96.743 96.743 0 0 1 9.281-22.176 112.993 112.993 0 0 1 14.7-20.067 135.3 135.3 0 0 1 19.493-17.481 159.951 159.951 0 0 1 23.652-14.426 183.3 183.3 0 0 1 27.186-10.891 202.832 202.832 0 0 1 30.09-6.882 217.988 217.988 0 0 1 32.366-2.401l.007 44.644a166.4 166.4 0 0 0 -16.686-.845 164.057 164.057 0 0 0 -24.3 1.8 153.328 153.328 0 0 0 -22.633 5.16 138.88 138.88 0 0 0 -20.48 8.165 121.179 121.179 0 0 0 -17.845 10.816 102.218 102.218 0 0 0 -14.721 13.11 84.941 84.941 0 0 0 -11.115 15.05 72.277 72.277 0 0 0 -7.027 16.631 66.343 66.343 0 0 0 0 35.719 72.311 72.311 0 0 0 7.024 16.634 84.99 84.99 0 0 0 11.115 15.053 102.268 102.268 0 0 0 14.721 13.116 121.209 121.209 0 0 0 17.843 10.822 138.859 138.859 0 0 0 20.48 8.171 153.247 153.247 0 0 0 22.633 5.164 164.873 164.873 0 0 0 48.6 0 153.234 153.234 0 0 0 22.632-5.164 138.853 138.853 0 0 0 20.479-8.171 121.2 121.2 0 0 0 17.842-10.822 102.275 102.275 0 0 0 14.721-13.116 84.994 84.994 0 0 0 11.115-15.053 72.313 72.313 0 0 0 7.024-16.634 66.6 66.6 0 0 0 2.449-17.859 64.118 64.118 0 0 0 -.383-6.965c-23.409 4.532-43.585 10.152-59.965 16.7a143.508 143.508 0 0 0 -25.622 13.007c-7.808 5.167-13.814 10.767-17.85 16.667v-54.53l161.447-.285a89.3 89.3 0 0 1 -3.266 23.859 97.749 97.749 0 0 1 -9.367 22.307 115.039 115.039 0 0 1 -14.821 20.249 137.848 137.848 0 0 1 -19.629 17.7 162.164 162.164 0 0 1 -23.791 14.637 184.208 184.208 0 0 1 -27.306 11.076 201.671 201.671 0 0 1 -30.175 7.014 214.372 214.372 0 0 1 -32.397 2.444zm-75.453-90.092-10.079-10.188-.45-.441c-9.172-8.986-18.655-18.277-14.893-29.239a18.175 18.175 0 0 1 5.091-7.4 40.505 40.505 0 0 1 8.707-5.892c6.7-3.523 14.872-6.325 22.769-9.034h.013c1.449-.5 2.948-1.011 4.391-1.515 7.632-2.617 15.488-4.764 23.086-6.84 5.026-1.374 10.221-2.793 15.356-4.348 8.456-2.556 17.131-4.95 26.317-7.484 21.328-5.884 43.382-11.969 61.93-20.087a121.321 121.321 0 0 0 24.713-13.944 67.871 67.871 0 0 0 9.449-8.567 49.821 49.821 0 0 0 6.995-9.853 40.731 40.731 0 0 0 3.518-14.962 52.923 52.923 0 0 0 -1.782-15.837 71.717 71.717 0 0 0 -6.285-15.748 88.038 88.038 0 0 0 -9.982-14.7 205.737 205.737 0 0 1 14.936 15.309c3.992 4.515 7.971 9.355 11.825 14.385 6.564 8.566 10.539 14.79 10.579 14.852a33.243 33.243 0 0 1 3.759 27.076 51.672 51.672 0 0 1 -6.278 13.878 78.485 78.485 0 0 1 -9.733 12.322 97.155 97.155 0 0 1 -11.268 10.055 82.256 82.256 0 0 1 -10.885 7.082c-16.855 8.986-31.54 13.976-48.543 19.755l-.157.053-2.441.83c-14.5 4.934-29.328 8.936-43.667 12.805-10.48 2.828-21.316 5.753-31.818 8.992a309.774 309.774 0 0 0 -31.025 11.207 31.877 31.877 0 0 0 -7.586 4.627 54.267 54.267 0 0 0 -5.545 5.43 13.545 13.545 0 0 0 -3.822 8.528 13.96 13.96 0 0 0 2.807 8.887z" transform="translate(58.85 29.026)"/><path d="m29.376 24.558h-11.634l2.658-7.765h17.223v18.33a20.557 20.557 0 0 1 -6.374 3.845 27.405 27.405 0 0 1 -9.262 2.223 20.323 20.323 0 0 1 -15.371-5.647 19.618 19.618 0 0 1 -6.616-14.725 19.755 19.755 0 0 1 6.107-14.64 20.348 20.348 0 0 1 14.855-6.179q9.938 0 16.209 6.669l-5.026 5.79a12.809 12.809 0 0 0 -4.406-2.978 14.829 14.829 0 0 0 -6.713-1.536 12.683 12.683 0 0 0 -9.1 3.92 12.264 12.264 0 0 0 -3.326 8.954 12.771 12.771 0 0 0 3.722 8.828 11 11 0 0 0 8.644 3.482 15.511 15.511 0 0 0 8.414-2.482v-6.089" transform="translate(0 406.996)"/><path d="m20.655 54a20.308 20.308 0 0 1 -7.965-1.552 20.641 20.641 0 0 1 -6.7-4.654 20.509 20.509 0 0 1 -5.99-14.677 20.835 20.835 0 0 1 1.5-7.917 21.533 21.533 0 0 1 4.5-6.78 20.731 20.731 0 0 1 6.7-4.649 20.286 20.286 0 0 1 7.965-1.556 21.427 21.427 0 0 1 8.192 1.556 21.521 21.521 0 0 1 6.916 4.649 21.036 21.036 0 0 1 4.751 6.766 20.9 20.9 0 0 1 0 15.952 21.033 21.033 0 0 1 -4.762 6.762 21.4 21.4 0 0 1 -6.916 4.576 21.8 21.8 0 0 1 -8.191 1.524zm.057-33.418a11.825 11.825 0 0 0 -8.771 3.723 12.885 12.885 0 0 0 -2.711 4.066 12.743 12.743 0 0 0 2.711 13.6 11.941 11.941 0 0 0 8.771 3.659 13.323 13.323 0 0 0 4.932-.9 13.023 13.023 0 0 0 4.173-2.708 12.6 12.6 0 0 0 2.851-4.056 12.634 12.634 0 0 0 0-9.6 12.533 12.533 0 0 0 -2.851-4.057 12.526 12.526 0 0 0 -9.105-3.723zm9-8.645-5.833-5.885 5.544-6.052 5.777 6.052-5.492 5.883zm-18.668 0-5.828-5.885 5.542-6.052 5.772 6.052-5.488 5.883z" transform="translate(43.098 394)"/><path d="m30.153 39h-30.153l18.492-31.377h-16.231l1.697-7.623h27.892l-17.583 31.087h17.806z" transform="translate(87.199 409)"/><path d="m0 39v-39h21.031l1.569 7.511h-14.264v7.155h10.8v7.734h-10.742v8.644h15.661l-2.181 7.956z" transform="translate(123.281 409)"/><path d="m7.621 39.721-7.621.836v-40.557l23.329 24.04v-23.377l7.742-.614v40.951l-23.45-23.314z" transform="translate(151.346 407)"/><path d="m7.832 38.947-7.832 1.053v-39.439l7.832-.561v15.4h16.009v-14.839l8.232-.561v39.169l-8.232.831v-16.568h-16.009z" transform="translate(205.469 408)"/><path d="m20.664 42a20.215 20.215 0 0 1 -7.964-1.56 20.633 20.633 0 0 1 -6.7-4.678 20.654 20.654 0 0 1 -6-14.752 21.007 21.007 0 0 1 1.5-7.957 21.647 21.647 0 0 1 4.5-6.815 20.72 20.72 0 0 1 6.7-4.674 20.192 20.192 0 0 1 7.964-1.564 21.26 21.26 0 0 1 8.178 1.564 21.641 21.641 0 0 1 6.915 4.674 21.122 21.122 0 0 1 4.755 6.8 20.3 20.3 0 0 1 1.588 8.024 20.25 20.25 0 0 1 -1.583 8.01 21.134 21.134 0 0 1 -4.755 6.8 21.518 21.518 0 0 1 -6.915 4.6 21.628 21.628 0 0 1 -8.183 1.528zm.049-33.592a11.825 11.825 0 0 0 -8.77 3.743 13 13 0 0 0 -2.717 4.087 12.823 12.823 0 0 0 2.717 13.669 11.942 11.942 0 0 0 8.77 3.677 13.274 13.274 0 0 0 4.937-.906 13.041 13.041 0 0 0 4.173-2.721 12.669 12.669 0 0 0 2.839-4.077 12.239 12.239 0 0 0 .943-4.817 12.3 12.3 0 0 0 -.943-4.832 12.6 12.6 0 0 0 -2.839-4.078 13 13 0 0 0 -4.173-2.809 12.915 12.915 0 0 0 -4.937-.935z" transform="translate(240.549 406)"/><path d="m20.655 40h-20.655v-39.514l8.191-.486v31.983h14.862z" transform="translate(286.654 408)"/><path d="m10.979 40h-10.979v-40h12.992a20.372 20.372 0 0 1 7.331 2.186 19.972 19.972 0 0 1 5.889 4.8 20.232 20.232 0 0 1 3.794 6.551 20.517 20.517 0 0 1 1.045 7.542 19.409 19.409 0 0 1 -1.713 7.347 19.637 19.637 0 0 1 -4.478 6.1 19.87 19.87 0 0 1 -6.365 4.1 20.416 20.416 0 0 1 -7.516 1.374zm-2.865-32.032v24.008h3.366a10.971 10.971 0 0 0 7.92-3.259 11.371 11.371 0 0 0 3.49-7.917 12.262 12.262 0 0 0 -2.576-8.2 11.476 11.476 0 0 0 -3.177-2.909 12.258 12.258 0 0 0 -4.144-1.551z" transform="translate(313.716 408)"/><path d="m1.284 54v-39.253l7.848-.832v39.144l-7.847.941zm3.816-43.22-5.1-5.38 4.873-5.4 5.151 5.4-4.924 5.379z" transform="translate(349.799 394)"/><path d="m7.627 39.721-7.627.836v-40.557l23.332 24.04v-23.377l7.739-.614v40.951l-23.444-23.314z" transform="translate(364.833 407)"/><path d="m29.732 24.428h-11.779l2.675-7.728h17.459v18.237a20.952 20.952 0 0 1 -6.47 3.824 28.082 28.082 0 0 1 -9.38 2.212 20.812 20.812 0 0 1 -15.554-5.618 19.39 19.39 0 0 1 -6.683-14.647 19.441 19.441 0 0 1 6.174-14.562 20.775 20.775 0 0 1 15.039-6.146q10.08 0 16.415 6.634l-5.1 5.759a13.053 13.053 0 0 0 -4.454-2.963 15.235 15.235 0 0 0 -6.8-1.528 12.947 12.947 0 0 0 -9.208 3.9 12.056 12.056 0 0 0 -3.374 8.905 12.576 12.576 0 0 0 3.775 8.781 11.215 11.215 0 0 0 8.744 3.463 15.925 15.925 0 0 0 8.519-2.468v-6.055" transform="translate(399.913 407)"/><path d="m0 7.267h437.54v-7.267h-437.54z" transform="translate(0 381.485)"/><path d="m0 7.268h437.54v-7.268h-437.54z" transform="translate(0 458.732)"/></g></svg>